<?xml version="1.0" encoding="utf-8"?>
<!-- Generator: Adobe Illustrator 19.1.0, SVG Export Plug-In . SVG Version: 6.00 Build 0)  -->
<svg version="1.1" xmlns="http://www.w3.org/2000/svg" xmlns:xlink="http://www.w3.org/1999/xlink" x="0px" y="0px" width="20px"
	 height="45px" viewBox="0 0 20 45" style="enable-background:new 0 0 20 45;" xml:space="preserve">
<style type="text/css">
	.st0{fill:#FFFFFF;}
</style>
<g id="Error">
	<path class="st0" d="M10,37.5l4.4-4.4c0.7-0.7,0.7-1.8,0-2.5c-0.7-0.7-1.8-0.7-2.5,0L7.5,35l-4.4-4.4c-0.7-0.7-1.8-0.7-2.5,0
		c-0.7,0.7-0.7,1.8,0,2.5L5,37.5l-4.4,4.4c-0.7,0.7-0.7,1.8,0,2.5C0.9,44.8,1.3,45,1.8,45c0.5,0,0.9-0.2,1.3-0.5L7.5,40l4.4,4.4
		c0.4,0.4,0.8,0.5,1.3,0.5s0.9-0.2,1.3-0.5c0.7-0.7,0.7-1.8,0-2.5L10,37.5z"/>
</g>
<g id="Caution">
	<path class="st0" d="M17.7,26.8L10.8,16c-0.4-0.6-1.1-1-1.8-1c-0.7,0-1.4,0.4-1.8,1L0.3,26.8c-0.4,0.6-0.4,1.5-0.1,2.1
		C0.6,29.6,1.3,30,2.1,30h13.8c0.8,0,1.5-0.4,1.8-1.1C18.1,28.2,18.1,27.4,17.7,26.8z M9,28.2c-0.6,0-1.1-0.5-1.1-1.1
		c0-0.6,0.5-1.1,1.1-1.1c0.6,0,1.1,0.5,1.1,1.1C10.1,27.7,9.6,28.2,9,28.2z M10.6,20.2L10,24c-0.1,0.6-0.6,0.9-1.2,0.9
		C8.4,24.8,8.1,24.5,8,24l-0.6-3.8c-0.1-0.9,0.5-1.7,1.3-1.9c0.9-0.1,1.7,0.5,1.9,1.3C10.6,19.9,10.6,20.1,10.6,20.2z"/>
</g>
<g id="Success">
	<path class="st0" d="M19.1,1l-0.6-0.6c-0.6-0.6-1.6-0.6-2.3,0L6.7,10L3.3,6.6C2.7,6,1.6,6,1,6.6L0.5,7.2c-0.6,0.6-0.6,1.6,0,2.3
		l5.1,5.1c0.6,0.6,1.6,0.6,2.3,0L19.1,3.3C19.7,2.7,19.7,1.6,19.1,1z"/>
</g>
<g id="Guides">
</g>
</svg>
