<?xml version="1.0" encoding="utf-8"?>
<!-- Generator: Adobe Illustrator 18.1.1, SVG Export Plug-In . SVG Version: 6.00 Build 0)  -->
<svg version="1.1" xmlns="http://www.w3.org/2000/svg" xmlns:xlink="http://www.w3.org/1999/xlink" x="0px" y="0px" width="20px"
	 height="60px" viewBox="-4 63 20 60" enable-background="new -4 63 20 60" xml:space="preserve">
<g id="Error_1_">
	<path fill="#FFFFFF" d="M9.3,112.9l5.9-5.9c0.9-0.9,0.9-2.4,0-3.4c-0.9-0.9-2.4-0.9-3.3,0l-5.9,5.9L0,103.7c-0.9-0.9-2.4-0.9-3.3,0
		s-0.9,2.4,0,3.4l5.9,5.9l-5.9,5.9c-0.9,0.9-0.9,2.4,0,3.4c0.4,0.5,0.9,0.8,1.6,0.8s1.2-0.3,1.7-0.7l5.9-6l5.9,5.9
		c0.5,0.5,1.1,0.7,1.7,0.7c0.7,0,1.2-0.3,1.7-0.7c0.9-0.9,0.9-2.4,0-3.4L9.3,112.9z"/>
</g>
<g id="Caution_1_">
	<path fill="#FFFFFF" d="M15.7,97.8L8,85.8c-0.4-0.7-1.2-1.1-2-1.1s-1.6,0.4-2,1.1l-7.7,12c-0.4,0.7-0.4,1.7-0.1,2.3
		c0.4,0.8,1.2,1.2,2.1,1.2h15.3c0.9,0,1.7-0.4,2-1.2C16.1,99.3,16.1,98.4,15.7,97.8z M6,99.3c-0.7,0-1.2-0.6-1.2-1.2
		s0.6-1.2,1.2-1.2s1.2,0.6,1.2,1.2S6.7,99.3,6,99.3z M7.8,90.4l-0.7,4.2c-0.1,0.7-0.7,1-1.3,1c-0.4-0.1-0.8-0.4-0.9-1l-0.7-4.2
		c-0.1-1,0.6-1.9,1.4-2.1c1-0.1,1.9,0.6,2.1,1.4C7.8,90.1,7.8,90.3,7.8,90.4z"/>
</g>
<g id="Success_1_">
	<path fill="#FFFFFF" d="M15.5,66.3l-0.6-0.6c-0.6-0.6-1.6-0.6-2.4,0l-9.7,9.8l-3.5-3.5c-0.6-0.6-1.7-0.6-2.4,0l-0.5,0.6
		c-0.6,0.6-0.6,1.6,0,2.4l5.2,5.2c0.6,0.6,1.6,0.6,2.4,0l11.5-11.6C16.2,68.1,16.2,66.9,15.5,66.3z"/>
</g>
<g id="Guides_1_">
</g>
</svg>
